HIERARCHY
ROOT Hips
{
	OFFSET 0.000000 0.000000 0.000000
	CHANNELS 6 Xposition Yposition Zposition Xrotation Yrotation Zrotation
	JOINT C_ctrl
	{
		OFFSET 0.000000 35.040482 -0.000011
		CHANNELS 3 Xrotation Yrotation Zrotation
		JOINT Bip01
		{
			OFFSET -41.537640 41.789009 -0.000007
			CHANNELS 3 Xrotation Yrotation Zrotation
			JOINT Bip01_Pelvis
			{
				OFFSET -2.462887 0.000000 0.000000
				CHANNELS 3 Xrotation Yrotation Zrotation
				JOINT BN_Tail_01
				{
					OFFSET -11.399368 7.351341 -0.000013
					CHANNELS 3 Xrotation Yrotation Zrotation
					JOINT BN_Tail_02
					{
						OFFSET -11.365196 -0.343025 0.000012
						CHANNELS 3 Xrotation Yrotation Zrotation
						JOINT BN_Tail_03
						{
							OFFSET -15.076256 -0.454979 0.000017
							CHANNELS 3 Xrotation Yrotation Zrotation
							JOINT BN_Tail_04
							{
								OFFSET -17.395691 -0.525002 0.000016
								CHANNELS 3 Xrotation Yrotation Zrotation
								JOINT BN_Tail_05
								{
									OFFSET -16.699837 -0.504005 0.000016
									CHANNELS 3 Xrotation Yrotation Zrotation
									End Site
									{
										OFFSET 0.503998 -16.699829 0.000067
									}
								}
							}
						}
					}
				}
				JOINT Bip01_Spine
				{
					OFFSET 8.297798 5.916809 -0.000020
					CHANNELS 3 Xrotation Yrotation Zrotation
					JOINT Bip01_R_Thigh
					{
						OFFSET -8.297779 -5.916794 10.541781
						CHANNELS 3 Xrotation Yrotation Zrotation
						JOINT Bip01_R_Calf
						{
							OFFSET 5.631542 -22.906792 0.862690
							CHANNELS 3 Xrotation Yrotation Zrotation
							JOINT Bip01_R_HorseLink
							{
								OFFSET -16.984341 -19.231926 -3.555767
								CHANNELS 3 Xrotation Yrotation Zrotation
								JOINT Bip01_R_Foot
								{
									OFFSET 4.290367 -24.783146 0.578056
									CHANNELS 3 Xrotation Yrotation Zrotation
									JOINT Bip01_R_Toe0
									{
										OFFSET 3.561211 -5.815116 0.760802
										CHANNELS 3 Xrotation Yrotation Zrotation
										JOINT Bip01_R_Toe0Nub
										{
											OFFSET 16.135469 0.002017 1.534789
											CHANNELS 3 Xrotation Yrotation Zrotation
											End Site
											{
												OFFSET -0.000002 16.208284 -0.000056
											}
										}
									}
								}
							}
						}
					}
					JOINT Bip01_L_Thigh
					{
						OFFSET -8.297813 -5.916832 -10.541739
						CHANNELS 3 Xrotation Yrotation Zrotation
						JOINT Bip01_L_Calf
						{
							OFFSET 5.631535 -22.906792 -0.862625
							CHANNELS 3 Xrotation Yrotation Zrotation
							JOINT Bip01_L_HorseLink
							{
								OFFSET -16.984318 -19.231949 3.555875
								CHANNELS 3 Xrotation Yrotation Zrotation
								JOINT Bip01_L_Foot
								{
									OFFSET 4.290367 -24.783169 -0.577965
									CHANNELS 3 Xrotation Yrotation Zrotation
									JOINT Bip01_L_Toe0
									{
										OFFSET 3.561245 -5.815111 -0.760799
										CHANNELS 3 Xrotation Yrotation Zrotation
										JOINT Bip01_L_Toe0Nub
										{
											OFFSET 6.574303 -0.000005 -1.538561
											CHANNELS 3 Xrotation Yrotation Zrotation
											End Site
											{
												OFFSET 0.000004 -6.751935 0.000023
											}
										}
									}
								}
							}
						}
					}
					JOINT Bip01_Spine1
					{
						OFFSET 20.556803 -4.626213 -0.000025
						CHANNELS 3 Xrotation Yrotation Zrotation
						JOINT Saddle
						{
							OFFSET 17.608810 18.174690 -0.000143
							CHANNELS 3 Xrotation Yrotation Zrotation
							End Site
							{
								OFFSET -0.000063 -0.000061 -22.448387
							}
						}
						JOINT BN_center
						{
							OFFSET 10.743275 -13.417107 -0.172041
							CHANNELS 3 Xrotation Yrotation Zrotation
							End Site
							{
								OFFSET 22.434088 0.553078 -0.579614
							}
						}
						JOINT Bip01_Spine2
						{
							OFFSET 24.765072 -2.054115 -0.000032
							CHANNELS 3 Xrotation Yrotation Zrotation
							JOINT Handle
							{
								OFFSET 63.735676 16.430748 -16.052464
								CHANNELS 3 Xrotation Yrotation Zrotation
								JOINT IK_Chain01
								{
									OFFSET -4.713058 -6.020439 0.185448
									CHANNELS 3 Xrotation Yrotation Zrotation
									End Site
									{
										OFFSET -0.000023 -0.000023 -7.648071
									}
								}
							}
							JOINT BN_hair04_01
							{
								OFFSET 1.987491 16.256981 -2.049672
								CHANNELS 3 Xrotation Yrotation Zrotation
								JOINT BN_hair04_02
								{
									OFFSET -1.318762 -3.831451 -6.174704
									CHANNELS 3 Xrotation Yrotation Zrotation
									JOINT BN_hair04_03
									{
										OFFSET -0.827490 -5.886627 -5.656666
										CHANNELS 3 Xrotation Yrotation Zrotation
										End Site
										{
											OFFSET -2.658262 5.010620 -5.929780
										}
									}
								}
							}
							JOINT Bip01_Neck
							{
								OFFSET 25.574577 9.433014 -0.000084
								CHANNELS 3 Xrotation Yrotation Zrotation
								JOINT Bip01_R_Clavicle
								{
									OFFSET -16.535652 0.011192 6.705692
									CHANNELS 3 Xrotation Yrotation Zrotation
									JOINT Bip01_R_UpperArm
									{
										OFFSET 20.272621 -12.959984 2.510816
										CHANNELS 3 Xrotation Yrotation Zrotation
										JOINT Bip01_R_Forearm
										{
											OFFSET -13.633509 -15.503704 -0.653585
											CHANNELS 3 Xrotation Yrotation Zrotation
											JOINT Bip01_R_Hand
											{
												OFFSET 2.580030 -27.804676 -1.136415
												CHANNELS 3 Xrotation Yrotation Zrotation
												JOINT Bip01_R_Finger0
												{
													OFFSET -0.281744 -19.659061 -0.398649
													CHANNELS 3 Xrotation Yrotation Zrotation
													JOINT Bip01_Xtra02
													{
														OFFSET 4.152210 -5.712314 0.433813
														CHANNELS 3 Xrotation Yrotation Zrotation
														JOINT Bip01_Xtra02Nub
														{
															OFFSET 15.457960 0.041654 0.507982
															CHANNELS 3 Xrotation Yrotation Zrotation
															End Site
															{
																OFFSET -15.421730 -0.157725 -1.163459
															}
														}
													}
													JOINT Bip01_R_Finger0Nub
													{
														OFFSET 8.362326 -9.718440 -0.143142
														CHANNELS 3 Xrotation Yrotation Zrotation
														End Site
														{
															OFFSET -1.213036 -0.198171 9.872291
														}
													}
												}
											}
										}
									}
								}
								JOINT Bip01_L_Clavicle
								{
									OFFSET -16.535673 0.011162 -6.705583
									CHANNELS 3 Xrotation Yrotation Zrotation
									JOINT Bip01_L_UpperArm
									{
										OFFSET 20.272615 -12.959999 -2.510836
										CHANNELS 3 Xrotation Yrotation Zrotation
										JOINT Bip01_L_Forearm
										{
											OFFSET -13.633495 -15.503681 0.653678
											CHANNELS 3 Xrotation Yrotation Zrotation
											JOINT Bip01_L_Hand
											{
												OFFSET 2.579988 -27.804686 1.136487
												CHANNELS 3 Xrotation Yrotation Zrotation
												JOINT Bip01_L_Finger0
												{
													OFFSET -0.281765 -19.659058 0.398696
													CHANNELS 3 Xrotation Yrotation Zrotation
													JOINT Bip01_Xtra01
													{
														OFFSET 4.083549 -5.738758 -0.666714
														CHANNELS 3 Xrotation Yrotation Zrotation
														JOINT Bip01_Xtra01Nub
														{
															OFFSET 6.758158 -0.395525 -0.023239
															CHANNELS 3 Xrotation Yrotation Zrotation
															End Site
															{
																OFFSET 6.764923 -0.254147 -0.029908
															}
														}
													}
													JOINT Bip01_L_Finger0Nub
													{
														OFFSET -0.012636 -9.629153 0.045740
														CHANNELS 3 Xrotation Yrotation Zrotation
														End Site
														{
															OFFSET 0.988407 0.004791 8.293357
														}
													}
												}
											}
										}
									}
								}
								JOINT BN_hair03_01
								{
									OFFSET -5.894140 16.270622 -2.498433
									CHANNELS 3 Xrotation Yrotation Zrotation
									JOINT BN_hair03_02
									{
										OFFSET -0.189278 -7.800507 -6.219162
										CHANNELS 3 Xrotation Yrotation Zrotation
										JOINT BN_hair03_03
										{
											OFFSET 0.612345 -10.844475 -3.370718
											CHANNELS 3 Xrotation Yrotation Zrotation
											End Site
											{
												OFFSET -2.273296 2.862007 -10.769416
											}
										}
									}
								}
								JOINT Bip01_Neck1
								{
									OFFSET 9.383755 11.908699 -0.000007
									CHANNELS 3 Xrotation Yrotation Zrotation
									JOINT BN_hair02_01
									{
										OFFSET 9.126320 18.808022 -1.420810
										CHANNELS 3 Xrotation Yrotation Zrotation
										JOINT BN_hair02_02
										{
											OFFSET 0.393478 -5.181091 -5.248574
											CHANNELS 3 Xrotation Yrotation Zrotation
											JOINT BN_hair02_03
											{
												OFFSET 0.762280 -8.167076 -0.230047
												CHANNELS 3 Xrotation Yrotation Zrotation
												End Site
												{
													OFFSET -0.025837 -1.251419 -8.109770
												}
											}
										}
									}
									JOINT Bip01_Head
									{
										OFFSET 14.266129 10.475403 -0.000008
										CHANNELS 3 Xrotation Yrotation Zrotation
										JOINT BN_Reins_01
										{
											OFFSET 18.547455 -15.740112 -0.000035
											CHANNELS 3 Xrotation Yrotation Zrotation
											JOINT BN_Reins_02
											{
												OFFSET -5.372810 -5.884506 0.000028
												CHANNELS 3 Xrotation Yrotation Zrotation
												JOINT BN_Reins_03
												{
													OFFSET -6.395866 -15.947449 0.000070
													CHANNELS 3 Xrotation Yrotation Zrotation
													JOINT BN_Halter_R_01
													{
														OFFSET -1.234055 -3.096100 7.096737
														CHANNELS 3 Xrotation Yrotation Zrotation
														End Site
														{
															OFFSET 10.514435 -4.176861 -0.000004
														}
													}
													JOINT BN_Halter_L_01
													{
														OFFSET -1.234062 -3.096146 -7.096726
														CHANNELS 3 Xrotation Yrotation Zrotation
														End Site
														{
															OFFSET -10.514435 4.176865 -0.000000
														}
													}
													JOINT BN_Reins_04
													{
														OFFSET -6.737644 -16.971684 0.000074
														CHANNELS 3 Xrotation Yrotation Zrotation
														JOINT BN_Halter_R_02
														{
															OFFSET -4.688869 -11.781956 7.096771
															CHANNELS 3 Xrotation Yrotation Zrotation
															End Site
															{
																OFFSET 14.669624 -5.827511 -0.000006
															}
														}
														JOINT BN_Halter_L_02
														{
															OFFSET -4.688892 -11.782017 -7.096693
															CHANNELS 3 Xrotation Yrotation Zrotation
															End Site
															{
																OFFSET -14.669624 5.827507 -0.000002
															}
														}
														JOINT BN_Reins_05
														{
															OFFSET -6.822578 -16.971161 0.000074
															CHANNELS 3 Xrotation Yrotation Zrotation
															JOINT BN_Reins_06
															{
																OFFSET -6.140354 -15.095148 0.000066
																CHANNELS 3 Xrotation Yrotation Zrotation
																End Site
																{
																	OFFSET -15.095150 6.140352 -0.000002
																}
															}
														}
													}
												}
											}
										}
										JOINT BN_hair01_01
										{
											OFFSET 8.957344 8.870956 0.112121
											CHANNELS 3 Xrotation Yrotation Zrotation
											JOINT BN_hair01_02
											{
												OFFSET 6.002075 -2.962952 -3.121264
												CHANNELS 3 Xrotation Yrotation Zrotation
												End Site
												{
													OFFSET 5.917702 3.813591 -2.232396
												}
											}
										}
										JOINT BN_Eyebrow_R
										{
											OFFSET 11.795959 -0.430496 4.449781
											CHANNELS 3 Xrotation Yrotation Zrotation
											JOINT Bip01_Xtra06Nub
											{
												OFFSET 2.936661 -0.262573 3.246701
												CHANNELS 3 Xrotation Yrotation Zrotation
												End Site
												{
													OFFSET 2.768745 0.208199 3.394807
												}
											}
										}
										JOINT BN_Eyebrow_L
										{
											OFFSET 11.586395 -0.445618 -4.441728
											CHANNELS 3 Xrotation Yrotation Zrotation
											JOINT Bip01_Xtra05Nub
											{
												OFFSET 3.244698 -0.349442 -4.416700
												CHANNELS 3 Xrotation Yrotation Zrotation
												End Site
												{
													OFFSET 3.053162 0.072495 -4.564033
												}
											}
										}
										JOINT Bip01_R_Ear_01
										{
											OFFSET 7.142960 7.567184 4.311657
											CHANNELS 3 Xrotation Yrotation Zrotation
											JOINT Bip01_Xtra04Nub
											{
												OFFSET 9.464531 9.264214 1.682953
												CHANNELS 3 Xrotation Yrotation Zrotation
												End Site
												{
													OFFSET 8.448181 10.159340 1.910823
												}
											}
										}
										JOINT Bip01__L_Ear_01
										{
											OFFSET 7.214943 7.717056 -4.356771
											CHANNELS 3 Xrotation Yrotation Zrotation
											JOINT Bip01_Xtra03Nub
											{
												OFFSET 9.230225 8.944366 -2.322746
												CHANNELS 3 Xrotation Yrotation Zrotation
												End Site
												{
													OFFSET 8.170288 9.841324 -2.643566
												}
											}
										}
										JOINT Bip01_Jaw
										{
											OFFSET 9.196068 -4.110695 -0.000013
											CHANNELS 3 Xrotation Yrotation Zrotation
											JOINT Bip01_Ponytail1Nub
											{
												OFFSET 10.976463 -21.082108 -0.000053
												CHANNELS 3 Xrotation Yrotation Zrotation
												End Site
												{
													OFFSET 11.247093 -20.938980 0.000113
												}
											}
										}
										JOINT Bip01_HeadNub
										{
											OFFSET 29.954575 -18.249489 -0.000063
											CHANNELS 3 Xrotation Yrotation Zrotation
											End Site
											{
												OFFSET -9.198448 -13.366348 0.000168
											}
										}
									}
								}
							}
						}
					}
				}
			}
		}
	}
}
MOTION
Frames: 4
Frame Time: 0.033333
0.000000 0.000000 0.000000 0.000008 0.000000 -0.000000 -0.000000 0.000000 -0.000000 0.000093 0.000031 -35.625024 -0.731227 -2.605319 -1.546430 -6.244121 11.143206 32.169354 0.695144 -2.401581 18.808604 -1.189670 3.505004 14.439727 -1.023892 7.155716 5.890077 -0.031180 5.688945 -1.153077 0.129440 2.454733 11.324141 12.246742 10.431812 -28.383988 8.108366 -2.810702 -44.457534 -10.101904 -7.563224 67.308516 8.174294 -19.929785 -98.257933 0.095362 0.037240 -0.460038 0.005529 0.009183 -0.002380 -11.074651 -8.540296 -30.508853 -9.205272 3.914271 -52.274139 8.479117 4.548818 50.088021 -5.524323 8.878022 -54.465052 -0.462770 -0.173827 -2.218645 0.008760 0.000225 0.038599 1.951164 -0.439296 -11.697223 -1.469360 0.207125 37.543234 1.594059 -0.176184 -0.920930 0.701678 0.333337 -11.615288 0.000074 -0.000073 -0.000067 -0.000008 -0.027854 0.027952 1.973572 3.632367 4.930929 -0.488240 -0.148059 0.224962 2.234407 0.248974 -0.617723 -0.606981 -0.083296 10.293208 -0.049380 3.907531 14.514816 0.087423 -6.592494 37.145806 -0.001151 -0.057731 1.407918 0.906123 1.980615 11.720650 4.524488 5.342372 -25.711492 -1.353149 3.861760 5.945728 -0.802187 0.160633 -0.479900 -0.804178 0.123483 -0.482666 0.756187 -2.189003 3.097971 -1.100113 4.848765 45.855435 0.000720 0.124079 3.025095 -4.152721 -0.401439 13.583224 0.954367 -9.181179 -20.657154 -1.098749 6.839171 2.000520 0.028250 0.072122 2.451899 -0.000913 0.100591 2.451955 1.009588 -1.242766 1.564126 -2.675339 -2.826162 8.965877 0.971016 -0.178827 0.913089 -0.400156 -0.832446 12.715504 1.398302 0.137228 -0.031045 -6.112958 -0.664192 2.435235 -3.931331 0.466447 5.649923 -1.798547 0.282379 -1.840058 0.000004 -0.000242 -21.499135 0.015442 0.184906 -12.122048 -0.000100 -0.000105 -34.523546 0.000017 -0.000015 -1.797735 0.000022 -0.000012 -2.378477 -0.000165 -0.000140 -53.694129 -23.901216 -11.934658 -2.559081 34.949180 16.671935 -5.206578 -0.000092 -0.000114 -36.622935 0.000007 0.000016 -0.000007 0.441161 1.445673 -0.931105 -22.894494 -22.188631 10.517249 0.000060 -0.000071 0.000036 0.024216 -0.030004 11.786593 0.000053 -0.000087 0.000012 0.023213 -0.032302 11.716000 0.885431 1.335096 -11.105637 0.050268 0.015093 11.755971 -1.290228 -1.929240 -11.270293 0.050131 0.014751 11.743137 -0.000005 0.000052 2.918483 -0.003491 -0.040864 11.750688 0.000081 -0.000037 11.750680 
0.000000 0.000000 0.000000 0.000008 0.000000 -0.000000 -0.000000 0.000000 -0.000000 0.001059 0.003479 -31.626877 -1.144654 -1.956278 0.613139 -6.306486 10.524878 32.203703 0.741387 -0.018719 -24.862095 -0.728562 2.670855 39.906657 -1.184804 7.653096 26.088614 -0.048310 4.978221 -4.946423 0.625121 1.780265 9.158776 9.601970 10.918171 -22.820179 7.938315 -2.664306 -43.329798 -10.029576 -7.367013 66.259740 9.939397 -17.568886 -91.648926 0.212447 0.034782 -1.007046 0.005529 0.009185 -0.002373 -7.823616 -6.610979 -23.987858 -8.858926 3.532521 -49.687994 8.352983 4.383718 49.046595 -4.845055 3.302320 -46.476449 -0.819776 -0.148795 -3.786874 0.008761 0.000227 0.038598 1.963730 -0.442919 -11.826554 -1.477784 0.199436 33.551225 1.594058 -0.176185 -0.920934 0.706445 0.335267 -11.744152 0.000074 -0.000073 -0.000070 -0.000008 -0.027853 0.027958 1.973570 3.632371 4.930934 -0.488249 -0.148057 0.224967 2.234406 0.248972 -0.617727 -0.607711 -0.083272 6.259206 -0.026317 3.218563 13.990616 0.567917 -5.431628 37.423624 -0.001219 -0.077786 1.896862 0.613178 1.744579 9.161644 3.762654 4.634059 -22.288027 -1.183220 3.242265 4.369801 -0.802214 0.160631 -0.479902 -0.804179 0.123482 -0.482666 0.747242 -1.383530 2.418384 -2.600694 2.961002 52.884078 -0.001821 -0.043439 -1.060224 -2.349471 -0.382980 8.736301 0.820479 -7.747241 -18.565385 -1.070983 6.676711 1.975167 0.028277 0.072122 2.451900 -0.000913 0.100591 2.451955 1.009580 -1.242757 1.564107 -2.675340 -2.826158 8.965870 0.971017 -0.178827 0.913091 -0.400595 -0.833208 7.266972 1.398303 0.137228 -0.031048 -6.112957 -0.664193 2.435241 -3.931331 0.466446 5.649921 -1.715724 -0.007313 -3.898103 0.000005 -0.000243 -21.499134 -0.004730 0.302664 -8.415502 -0.000097 -0.000103 -33.664336 0.000017 -0.000015 -1.797738 0.000022 -0.000012 -2.378480 -0.000159 -0.000138 -52.371121 -23.901212 -11.934652 -2.559084 34.949183 16.671937 -5.206579 -0.000089 -0.000112 -35.779703 0.000007 0.000016 -0.000003 0.441147 1.445680 -0.931099 -22.894497 -22.188628 10.517246 0.000061 -0.000070 0.000036 0.024231 -0.029998 11.786615 0.000059 -0.000068 0.000013 0.023225 -0.032302 11.715978 0.842628 1.310386 -10.822048 0.050282 0.015115 11.755976 -1.252204 -1.881173 -10.988910 0.050143 0.014775 11.743137 -0.000005 0.000052 2.997821 -0.003473 -0.040885 11.750686 0.000081 -0.000037 11.750673 
0.000000 0.000000 0.000000 0.000008 0.000000 -0.000000 -0.000000 0.000000 -0.000000 0.002997 0.012046 -27.371303 -1.637646 -1.282234 3.009784 -6.367143 9.918515 32.236577 1.986642 3.588770 -46.610744 -0.900024 2.571365 16.528322 -1.776462 8.358594 54.249717 0.067344 4.922224 12.275075 1.153047 1.065132 6.717296 6.872654 11.147582 -17.128612 7.747347 -2.506650 -42.084774 -9.949106 -7.160773 65.149691 11.558535 -15.232787 -84.947855 0.538177 0.004416 -2.533036 0.005530 0.009186 -0.002375 -4.589220 -4.128422 -17.024554 -8.465003 3.137199 -46.886165 8.213200 4.207721 47.919835 -4.583983 -2.440131 -37.496803 -1.794107 -0.030026 -8.087714 0.008761 0.000227 0.038597 1.976256 -0.446533 -12.010876 -1.486623 0.192490 29.636754 1.594059 -0.176184 -0.920932 0.711202 0.337171 -11.927995 0.000074 -0.000073 -0.000072 -0.000014 -0.041870 0.027949 1.973551 3.632359 4.930895 -0.488241 -0.148059 0.224963 2.234409 0.248971 -0.617724 -0.609174 -0.083146 2.016961 0.024747 2.543567 13.764362 0.948012 -4.253652 37.849753 -0.001120 -0.097451 2.376327 0.315836 1.526204 6.651504 3.059263 3.896607 -18.943625 -1.027317 2.581492 2.692448 -0.802242 0.160632 -0.479904 -0.804178 0.123484 -0.482666 0.696410 -0.590991 2.039350 -3.779624 0.848379 59.868917 -0.015896 -0.207121 -5.066253 -0.585951 -0.514365 3.985147 0.638027 -6.346263 -16.517409 -1.043600 6.517433 1.950260 0.028305 0.072122 2.451900 -0.000913 0.100591 2.451955 1.009544 -1.242773 1.564114 -2.675341 -2.826163 8.965877 0.971015 -0.178828 0.913089 -0.401621 -0.834740 1.537190 1.398288 0.137228 -0.031059 -6.112956 -0.664193 2.435245 -3.931331 0.466445 5.649923 -1.519467 -0.243891 -5.910042 0.000005 -0.000243 -21.499132 -0.035672 0.398353 -3.766697 -0.000095 -0.000101 -33.086686 0.000017 -0.000015 -1.797734 0.000022 -0.000012 -2.378482 -0.000156 -0.000137 -51.482356 -23.901224 -11.934652 -2.559082 34.949183 16.671937 -5.206578 -0.000087 -0.000111 -35.213532 0.000007 0.000016 -0.000005 0.441152 1.445680 -0.931102 -22.894495 -22.188624 10.517245 0.000060 -0.000072 0.000035 0.024255 -0.029997 11.786641 0.000061 -0.000071 0.000010 0.023241 -0.032300 11.715956 0.800803 1.286040 -10.544011 0.050295 0.015139 11.755976 -1.215138 -1.833884 -10.713061 0.050155 0.014798 11.743130 -0.000005 0.000053 3.075634 -0.003455 -0.040906 11.750689 0.000081 -0.000037 11.750677 
0.000000 0.000000 0.000000 0.000008 0.000000 -0.000000 -0.000000 0.000000 -0.000000 0.004882 0.023852 -22.878303 -2.190052 -0.626144 5.541810 -6.047325 8.598040 32.231485 3.895121 7.774955 -57.193562 -1.290571 4.712424 -8.369552 -0.286111 5.648087 42.521503 -0.814810 7.570994 42.639061 1.681993 0.305687 4.261725 4.076448 11.092397 -11.397647 7.538335 -2.341854 -40.746112 -9.860077 -6.945320 63.981059 13.044662 -12.946093 -78.050225 1.052958 -0.014296 -4.939535 0.005530 0.009185 -0.002374 -1.558537 -1.127378 -10.014948 -8.031894 2.743904 -43.946827 8.063030 4.026234 46.738684 -4.829689 -7.936592 -27.762707 -3.245699 0.269918 -14.575289 0.008762 0.000226 0.038596 1.988472 -0.450113 -12.079756 -1.493815 0.180804 25.145072 1.594059 -0.176184 -0.920932 0.715855 0.339029 -11.996405 0.000074 -0.000073 -0.000069 -0.000008 -0.055858 0.027954 1.973502 3.632342 4.930907 -0.488244 -0.148057 0.224963 2.234411 0.248975 -0.617727 -0.610256 -0.082952 -2.121177 0.031680 2.110916 15.016164 0.823709 -3.467317 36.692125 -0.001220 -0.074606 1.819350 0.345786 1.234198 5.245767 2.510735 3.261723 -16.170637 -0.886242 1.877213 0.897290 -0.802297 0.160632 -0.479908 -0.804180 0.123483 -0.482666 0.655487 -0.162762 3.800306 -4.539058 -0.518304 60.556341 -0.027251 -0.288718 -7.074861 0.766946 -0.684676 1.440850 0.444032 -5.200194 -14.878737 -1.016281 6.356527 1.925231 0.028359 0.072123 2.451897 -0.000913 0.100591 2.451956 1.009541 -1.242779 1.564114 -2.675343 -2.826161 8.965880 0.971016 -0.178829 0.913094 -0.402513 -0.835769 -4.051976 1.398271 0.137230 -0.031058 -6.112950 -0.664191 2.435232 -3.931331 0.466446 5.649926 -1.310559 -0.456066 -8.203036 0.000005 -0.000243 -21.499135 -0.117240 0.497936 2.074817 -0.000095 -0.000101 -32.991463 0.000017 -0.000014 -1.797736 0.000022 -0.000012 -2.378475 -0.000155 -0.000137 -51.335746 -23.901222 -11.934652 -2.559081 34.949190 16.671940 -5.206579 -0.000086 -0.000111 -35.120126 0.000007 0.000016 -0.000024 0.441141 1.445684 -0.931117 -22.894483 -22.188607 10.517252 0.000059 -0.000051 0.000023 0.024283 -0.030001 11.786694 0.000062 -0.000071 0.000003 0.023273 -0.032285 11.715926 0.758712 1.261331 -10.263204 0.050318 0.015188 11.755984 -1.177914 -1.785928 -10.434478 0.050179 0.014845 11.743119 -0.000004 0.000054 3.154200 -0.003421 -0.040948 11.750686 0.000081 -0.000037 11.750683 
